<svg xmlns="http://www.w3.org/2000/svg" xmlns:xlink="http://www.w3.org/1999/xlink" viewBox="0 0 92.8 72.7">
  <g fill="#b8b8b8">
    <g transform="matrix(.07344 0 0 .07096 0 0)">
      <path d="M644 0C513.3 0 406.7 113.7 406.7 253.2c0 139.4 106.6 253 237.3 253 130.7 0 237.4-113.6 237.4-253C881.4 113.7 774.7 0 644 0zm0 64c98.3 0 177.4 84.3 177.4 189.2 0 104.8-79 189-177.4 189-98.3 0-177.3-84.2-177.3-189 0-105 79-189.2 177.3-189.2zm-307.6 53.6c-115.8 0-210 100.7-210 224 0 123.5 94.2 224.2 210 224.2 63.7 0 108.8-17.6 147.4-65.7-86-38-134.7-141.5-134.7-246.8 0-47.5 12.4-92 34-130-15-3.7-30.7-5.6-46.6-5.6zM644 547c-210.6 0-379 201-380 445v32h760v-32c-1-244-169.4-445-380-445zm-311 53.5c-13.6.2-23.3 1.2-23.3 1.2-186.4 0-308.8 178-309.6 394v28.3h206.4v-32c.7-163 60.3-310.6 173-388.2-15.5-3-33-3.5-46.5-3.3zM644 611c165.8 0 304 151.6 318.4 349H325.6C340 762.6 478.2 611 644 611z"/>
    </g>
    <g transform="matrix(.0194 0 0 .0194 72.92 1.373)">
      <path d="M427.6 0c-149.5 0-271 121.6-271 271.4V391H0v633h1024V391H867.3V271.4C867.3 121.6 746 0 596.3 0H427.7zm0 64h168.8c115 0 206.8 92 206.8 207.4V391H220.7V271.5C220.7 156 312.4 64 427.7 64zM64 455.3h896V960H64V455zm416 131.5V816h64V586.7h-64z"/>
    </g>
  </g>
</svg>
