<svg xmlns="http://www.w3.org/2000/svg" viewBox="0 0 207.87413 65.026039">
  <g fill="#b8b8b8">
    <path d="M105 14.5c-5 0-9 4-9 9.2v4h-5.4V49H125V27.6H120v-4c0-5-4-9.2-9-9.2H105zm0 2.2h5.7c3.8 0 7 3 7 7v4H98v-4c0-4 3-7 7-7zm-12.2 13h30v17H93v-17zm14 4.6V42h2v-7.7h-2zM183 0c-8.7 0-15.7 7.2-15.7 16 0 9 7 16 15.6 16 8.5 0 15.5-7 15.5-16 0-8.8-7-16-15.6-16zm0 4c6.3 0 11.5 5.4 11.5 12 0 6.7-5.2 12-11.6 12-6.6 0-11.8-5.3-11.8-12 0-6.6 5.2-12 11.7-12zm-20.3 3.5C155 7.5 149 14 149 21.7c0 7.8 6 14.2 13.7 14.2 4.2 0 7-1.2 9.7-4.2-5.7-2.5-9-9-9-15.7 0-3 1-5.8 2.3-8.2l-3-.3zM183 34.7c-14 0-25 12.8-25 28.3v2h50v-2c-.2-15.5-11.3-28.3-25-28.3zM162.4 38c-1 0-1.6.2-1.6.2-12.3 0-20.4 11.3-20.4 25V65H154v-2c.2-10.4 4-19.7 11.5-24.7l-3-.2zm20.4.8c10.8 0 20 9.6 20.8 22.2H162c1-12.6 10-22.2 21-22.2zM43 10.5v7.2H9.2v9H0V65h72.3V10.4h-25zm4.4 4.5h20.4v45.3h-9V26.8h-45V22l33.6.2z"/>
  </g>
</svg>
