<svg xmlns="http://www.w3.org/2000/svg" viewBox="0 0 72.3 54.4">
    <g fill="#b8b8b8" transform="translate(0 -8.944) scale(.07058)">
        <path d="M607.8 126.7V229h-476v127.3H0v541h1024V126.7H671.8zm64 64H960v642.6H832V358.6h-.4v-2.3h-636V293l476.2 2.5z"/>
    </g>
    <g fill="#f5f5f5" transform="translate(14.503 21.18) scale(.0254)">
        <path d="M427.6 0c-149.5 0-271 121.6-271 271.4V391H0v633h1024V391H867.3V271.4C867.3 121.6 746 0 596.3 0H427.7zm0 64h168.8c115 0 206.8 92 206.8 207.4V391H220.7V271.5C220.7 156 312.4 64 427.7 64zM64 455.3h896V960H64V455zm416 131.5V816h64V586.7h-64z"/>
    </g>
</svg>
