<svg xmlns="http://www.w3.org/2000/svg" xmlns:xlink="http://www.w3.org/1999/xlink" viewBox="0 0 400 400">
    <path
        fill="#b8b8b8" d="M165 91.5c-33 0-60 28.7-60 64 0 35.2 27 64 60 64s60-28.8 60-64c0-35.3-27-64-60-64zm0 16.2c24.8 0 44.8 21.3 44.8 47.8 0 26.5-20 47.8-44.8 47.8-25 0-45-21.3-45-47.8 0-26.5 20-47.8 45-47.8zm-77.8 13.5c-29.2 0-53 25.5-53 56.7 0 31 23.8 56.5 53 56.5 16 0 27.5-4.5 37.3-16.6-21.8-9.7-34-36-34-62.5 0-12 3-23.3 8.5-33-3.8-.8-7.7-1.3-11.8-1.3zM165 229.7c-53.3 0-95.8 50.8-96 112.5v8h192v-8c-.2-61.7-42.8-112.5-96-112.5zm-78.7 13.6c-3.4 0-5.8.3-5.8.3-47.2 0-78 45-78.3 99.5v7.3h52.2v-8c0-41.3 15.2-78.6 43.7-98.2-3.8-.6-8.2-.8-11.7-.7zM165 246c42 0 76.8 38.2 80.5 88h-161c3.6-49.8 38.6-88 80.5-88zM339.3 49.7C307 49.7 281 76 281 108.2c0 32.2 26 58.4 58.3 58.4s58.5-26.2 58.5-58.4c0-32.3-26.2-58.5-58.5-58.5zm0 7.3c28.3 0 51.2 23 51.2 51.2 0 28.3-23 51-51.2 51-28.3 0-51-22.7-51-51S311 57 339.2 57zm-.2 11.8c-7 0-14 1.7-20.5 5l3 7c3.5-1.6 6.5-2.7 9-3.3 2.7-.7 5.4-1 8-1 4.4 0 7.6 1 10 3 2.2 1.8 3.3 4.5 3.3 8 0 3-.6 5.4-1.8 7.4-1.2 2-4.2 5-9 9-3.3 2.8-5.7 5.6-7 8.2-1.2 2.6-1.8 6-1.8 10v2.8h6.7v-1.7c0-3.3.5-6 1.6-8 1-2 3.5-4.4 7-7.3 4.4-4 7.2-6.6 8.5-8.3 1.4-1.8 2.4-3.6 3-5.5.8-2 1-4.2 1-6.7 0-6-1.7-10.6-5.4-13.8-3.7-3.3-8.8-5-15.5-5zm-6.8 62.5V148h7.3v-16.7h-7.3z" />
</svg>
