<svg xmlns="http://www.w3.org/2000/svg" viewBox="0 0 22.009972 21.659925">
  <path d="M9.5 21.9c-4.2-.6-7.7-3.48-9.03-7.5-.4-1.2-.56-2.34-.53-3.76.05-1.7.37-3 1.1-4.5.52-1.06 1.47-2.37 2.26-3.1C5 1.43 6.88.5 9.16.07c.62-.1 2.28-.15 2.98-.07 4.17.48 7.7 3.26 9.16 7.2.26.7.47 1.6.58 2.44.1.9.08 2.33-.07 3.2-.82 4.6-4.38 8.17-9 9-.8.14-2.52.17-3.3.06zm-.9-2.2c.16-.3.82-1.08 1-1.2l.4-.26c.3-.2.44-.4.66-1.02.3-.82.26-1.36-.07-1.56-.1-.04-.4-.14-.7-.22-.53-.14-1.05-.37-1.2-.54-.05-.05-.13-.23-.18-.4-.1-.37-.26-.48-.86-.66-.4-.12-.5-.13-1.53-.13-1.07 0-1.1 0-1.25-.1-.17-.16-.55-.7-.55-.82 0-.05-.04-.13-.08-.18-.06-.1-.13-.1-.42-.1-.2 0-.38 0-.42-.04-.17-.15 0-.74.3-1.06.17-.2.3-.2.72-.1.73.22 1 .48 1 1.04 0 .28.1.46.2.35.03-.04.1-.36.13-.73.16-1.34.24-1.58.7-2 .34-.33.63-.47.9-.43.16.02.3 0 .67-.16.65-.26 1-.46 1.3-.77.3-.3.38-.5.28-.85-.24-.82-.87-1.4-1.53-1.4-.3 0-.55.14-1.26.7-.2.17-.46.35-.58.4-.2.1-.22.1-.38.04-.23-.12-.34-.36-.35-.74 0-.36.06-.55.35-1 .4-.62.96-1.1 1.3-1.1.08 0 .23.1.38.24.3.27.46.33.95.33.3 0 .36-.02.47-.13.16-.15.16-.2 0-.53-.14-.3-.55-.7-.9-.9-.5-.3-1.27-.38-2.14-.22-.4.08-.47.1-.8.38-.22.17-.58.5-.82.76-1.3 1.36-2.1 2.94-2.46 4.83-.1.47-.16 2-.1 2.27.03.23.44.7.94 1.13.44.36.7.5 1.3.7.57.18.85.38 1 .7.13.25.14.33.14.93 0 .76.06 1 .42 1.7.22.44.42 1.04.62 1.85.05.22.06.23.68.54.63.3 1.43.6 1.6.62.06 0 .14-.07.2-.16zm8.23-1.62c1.53-1.28 2.62-3 3.1-4.92.2-.8.24-1.17.24-2.2 0-.6-.03-1.15-.07-1.4C19.75 7.6 18.95 6 17.62 4.6c-.62-.65-.8-.8-.96-.72-.15.06-.56.57-1.05 1.3-.52.78-.52.8.05 1 .44.17.55.24.48.36-.02.04-.36.36-.74.7-.4.36-.82.76-.95.9-.25.24-.36.5-.25.63.1.1 0 .2-.27.37-.42.22-.5.33-.5.64 0 .4-.22.95-.78 2.05-.5.98-.52 1-.52 1.36 0 .54.2.85.65 1.03.1.03.45.08.82.1.5.04.75.1 1 .2.6.2.7.35.96 1.44.1.4.24.88.32 1.06.07.2.18.5.23.73.15.5.2.65.27.65.04 0 .24-.14.46-.32zM11.43 5.7c.1-.06.33-.22.47-.34l.62-.5c.2-.13.55-.44.8-.67.37-.38.44-.47.72-1.05.17-.35.3-.67.3-.7 0-.1-.35-.24-.94-.4-.8-.22-1.3-.3-2.26-.32-1-.03-1.08 0-1.08.24 0 .2.1.27.46.34.27.06.3.08.33.24.02.1.05.43.07.73.03.47.02.6-.07.9-.17.54-.14 1.43.06 1.67.08.1.25.05.52-.13z"/>
</svg>
