<?xml version="1.0" encoding="UTF-8" standalone="no"?>
<svg xmlns:rdf="http://www.w3.org/1999/02/22-rdf-syntax-ns#" xmlns="http://www.w3.org/2000/svg" version="1.1" xmlns:cc="http://creativecommons.org/ns#" xmlns:dc="http://purl.org/dc/elements/1.1/" viewBox="0 0 287.81297 236.94013">
 <g transform="translate(-2.9e2 -5.7e2)">
  <path class="graph" d="m4.7e2 5.7e2c-4.4 0-7.9 3.3-7.9 7.3v2e2c0 4.1 3.5 7.3 7.9 7.3h45c4.4 0 7.9-3.3 7.9-7.3v-2e2c0-4.1-3.5-7.3-7.9-7.3h-45zm-72 70c-4.4 0-7.9 3.3-7.9 7.3v1.3e2c0 4.1 3.5 7.3 7.9 7.3h45c4.4 0 7.9-3.3 7.9-7.3v-1.3e2c0-4.1-3.5-7.3-7.9-7.3h-45zm-72 62c-4.4 0-7.9 3.3-7.9 7.3v67c0 4.1 3.5 7.3 7.9 7.3h45c4.4 0 7.9-3.3 7.9-7.3v-67c0-4.1-3.5-7.3-7.9-7.3h-45z" />
  <rect class="white-line" transform="rotate(-30)" rx="0" ry="0" height="28" width="3.1e2" y="8e2" x="-1.3e2"/>
  <rect class="color-line" ry="0" rx="0" transform="rotate(-30)" height="28" width="3.1e2" y="8.3e2" x="-1.3e2"/>
 </g>
</svg>
