<?xml version="1.0" encoding="UTF-8" standalone="no"?>
<svg xmlns:rdf="http://www.w3.org/1999/02/22-rdf-syntax-ns#" xmlns="http://www.w3.org/2000/svg" height="38.9mm" width="46.15mm" version="1.1" xmlns:cc="http://creativecommons.org/ns#" xmlns:dc="http://purl.org/dc/elements/1.1/" viewBox="0 0 163.53744 137.83166">
 <g transform="translate(-380.2 -247.3)">
  <path d="m418.3 247.3-10.6 7.583 18.15 25.36c-7.263 4.439-13.94 9.867-19.79 15.15-13.38 12.08-22.55 24.14-22.55 24.14l-3.282 4.311 3.64 4.013s32.55 37.09 74.69 37.09c8.514 0 16.8-1.763 24.64-4.556l17.71 24.75 10.6-7.582-93.21-130.2zm38.03 23.17c-2.47 0-4.912 0.2145-7.324 0.6089l8.889 12.44c31.54 0.7498 58.2 23.91 67.98 33.53-3.958 3.792-10.25 9.469-18.55 15.44-3.071 2.209-6.362 4.397-9.807 6.464l7.622 10.67c3.458-2.136 6.735-4.353 9.793-6.553 14.9-10.72 24.9-21.5 24.9-21.5l3.947-4.254-3.772-4.411s-35.36-42.43-83.67-42.43zm-22.72 20.61 5.5 7.685c-4.822 4.603-7.667 11.04-7.668 17.91 0.00019 13.68 11.09 24.77 24.77 24.77 4.017-0.001 7.935-0.9793 11.44-2.804l7.558 10.56c-5.565 1.704-11.18 2.716-16.63 2.716-27.08 0-51.8-20.38-61.02-28.94 3.586-4.258 9.506-10.92 17.25-17.91 5.695-5.14 12.19-10.11 18.82-13.98z"/>
 </g>
</svg>
