<svg viewBox="0 0 400 400.00001" xmlns="http://www.w3.org/2000/svg">
    <path
        d="M239.7 0c-1.4 0-2.8 0-4 .3-27.7.5-55.4-.7-83 .6C138 4 129 21.7 135 35.5c.8 5 3.6 11.5 3.5 16h-28.8v25.3h20c-1.2 11.5-13.8 16.4-22.4 21.8C89 109 70.5 124 66.7 145.8c-4 20.5-.5 41.5-1.7 62 .3 56.4-1 112.8.7 169 2.5 14.4 17.2 24.6 31.4 23 54.4.4 108.8 0 163 .2 18-.3 35.8.4 53.5-1 13.7-3.3 23-17.4 21.5-31.2.5-55 0-110 .3-165-.3-18.2.3-36.6-1.2-54.8-3.8-22.5-22-39.2-41.4-49.4-9-5-20.4-10.5-22.4-21.7H290V64.7 51.5h-29c3-12.3 9.7-26 2.8-38.2-5-8.7-14.4-13.3-24-13.3zm-1.4 24.7c1.7 0 3.3.2 4 1.6-.6 4.8-3 9.2-4 14-1.4 3.3 0 8.6-2.8 11.2h-71.2c-1.8-8.8-5.7-17.8-5.8-26.6 2-.6 4 0 6-.2 23 .4 46 0 69 0 1.3.2 3 0 4.8 0zM154.8 77h91c0 16.5 12 30.4 26 38 14.3 8.7 32.8 17 37.5 34.8 2 4.6.6 7.2-4.8 5.7H89.7c1.4-15.3 14-27.2 27.3-33.8 14.8-8.5 32.4-18.2 36.3-36.3 1-2.5 0-7 1.5-8.5zm-18.6 103.7c15 6 23 21.2 35.3 30.8 6.6-4.7 14.2-7.8 22-9.2 14-3 28 2 40.5 8 11.8-9.6 18-18 28-25.8 6.3-6 17-3.3 17 5-8.2 14.5-21 23.4-32.5 34.6 8.5 12 12 27.4 8.5 41.6-.3 7.2-7.2 12-8 19 8 11.8 18.8 20 27.7 30.5 7.4 4.3 3.5 17.2-5 17-14.7-8.2-23.2-23.7-37-33-1.8 5.3 0 13.2-.3 19.6 1.4 6.4-3.5 12.7-10 13.3-12.7-.8-25.6 0-38.4-.5-7.4.5-10.3-7.8-9.8-14 0-5 3-13-3.3-15.4-12.7 6.2-20.8 17.5-34.4 26.7-4.8 6.6-16.2 1-15.6-6.5 10.2-16 27-25.3 40-38.6-15.4-15.5-15.2-42-2-58.8-7.8-10-18.2-18-26.8-27.3-7.3-3.8-4-16.7 4-16.8zM205 219h-2.2c-14.6 0-28.7 9.7-34 23.6-5.8 12.7.3 28.3 12 35.3 6.5 1.7 11 7.6 11.7 14.2 1.4 6.8-3 14.2.7 20.4 6.4 2.4 14.4 2.7 21 .4 2.2-7-.7-15.2.3-22.7 2.2-11 16-13.2 21-22.4 11-21-7.6-48.4-30.5-49zm-14.7 21.8c4.7 0 7.8 4.6 8.7 8.7 2 6.7-2.3 17-10.4 15.3-11.6-2.6-10.5-23.3 1.7-24zm27 0c4.4.2 7.2 4.2 8.2 8.2 2.3 6.7-1.8 17.2-10 15.8-11.7-2.3-11-23 1-24h1zM90 360.8c21.2 1 42.5-.2 63.8.3h156.6c0 4.7 2.4 13-4 14-15 1.4-29.8-.5-44.7.3-56.5-.2-113 .7-169.6-.5-4-3-2.7-10.2-2-14z" />
</svg>
