<?xml version="1.0" encoding="UTF-8" standalone="no"?>
<!-- Created with Inkscape (http://www.inkscape.org/) -->
<svg xmlns:rdf="http://www.w3.org/1999/02/22-rdf-syntax-ns#" xmlns="http://www.w3.org/2000/svg" version="1.1" xmlns:cc="http://creativecommons.org/ns#" xmlns:dc="http://purl.org/dc/elements/1.1/" viewBox="0 0 10.2367 12.115">
    <g transform="translate(51.126 -417.22)">
        <path class="lock" d="m-46.008 417.22c-1.886 0-3.4167 1.5307-3.4167 3.4167v1.033h-1.2265c-0.2632 0-0.4751 0.2264-0.4751 0.5072v6.6509c0 0.2808 0.2119 0.5072 0.4751 0.5072h9.2865c0.2632 0 0.4751-0.2264 0.4751-0.5072v-6.6509c0-0.2808-0.2119-0.5072-0.4751-0.5072h-1.2265v-1.033c0-1.886-1.5307-3.4167-3.4168-3.4167zm0 1.2986c1.1686 0 2.1195 0.9496 2.1195 2.1181v1.033h-4.2375v-1.033c0-1.1685 0.9495-2.1181 2.118-2.1181z"/>
    </g>
</svg>
