<svg xmlns:svg="http://www.w3.org/2000/svg" xmlns="http://www.w3.org/2000/svg" viewBox="0 0 1000 1000" version="1.1" preserveAspectRatio="xMidYMid meet">
    <style>
        path {
            fill:#f5f5f5;
            opacity:0.7;
        }
        .moustache {
            fill:#000;
        }
    </style>
    <g transform="translate(0,-52.362183)">
        <g transform="matrix(1.1783562,0,0,1.1783562,2450.4425,-1298.9778)">
            <path transform="matrix(-0.1406648,0.99005728,-0.99005728,0.14066481,0,0)" d="m1114.3 1212.6 263 0 0 263-263 0z" />
            <path transform="matrix(0.1406648,-0.99005728,0.99005728,-0.14066481,0,0)" d="m-1640.3-1738.9 263 0 0 263-263 0z" />
            <path transform="matrix(0.99005728,0.1406648,0.14066481,0.99005728,0,0)" d="m-2199.2 1599.4 263 0 0 263-263 0z" />
            <path transform="matrix(-0.99005728,-0.1406648,-0.14066481,-0.99005728,0,0)" d="m1673.2-2125.1 263 0 0 263-263 0z" />
            <path transform="matrix(-0.60061118,-0.79954125,0.60061117,-0.79954125,0,0)" d="m132.1-2623.1 263 0 0 263-263 0z" />
            <path transform="matrix(-0.79954125,0.60061118,-0.79954125,-0.60061117,0,0)" d="m2079.7-535.4 263 0 0 263-263 0z" />
            <path transform="matrix(0.60061118,0.79954125,-0.60061118,0.79954125,0,0)" d="m-658.4 2097.4 263 0 0 263-263 0z" />
            <path transform="matrix(0.79954125,-0.60061118,0.79954125,0.60061117,0,0)" d="m-2606.2 10.1 263 0 0 263-263 0z" />
            <path transform="matrix(0.70710678,0.70710678,-0.70710678,0.70710678,0,0)" d="m-130.2 2210.7 141.4 0 0 141.4-141.4 0z" />
        </g>
    </g>
    <path class="moustache" d="m197.1 669.9c0 0-11.5 83.8 58.5 113.8 60.9 26.1 109.3 13 144.4 0.7 35.1-12.4 98.9-66.3 98.9-66.3 0 0 92.3 74.1 154.1 80.6 61.8 6.5 100.4-9.5 119-28 45.1-44.9 34.5-102.8 34.5-102.8 0 0-43.6 31.9-88.4 11.7-44.9-20.2-63.7-73.6-109.8-90.5-46.2-16.9-78.1 0.8-91.8 13.1-13.7 12.4-15.6 16.9-15.6 16.9 0 0-28-31.2-63.1-33.8-35.1-2.6-59.8 15.6-91 46.2-31.2 30.6-48.1 54-83.9 55.3-35.8 1.3-65.7-16.9-65.7-16.9z" />
</svg>
