<svg xmlns:svg="http://www.w3.org/2000/svg" xmlns="http://www.w3.org/2000/svg" width="1000" height="1000" version="1.1"><style>.s0{fill:#fff;opacity:0.7;}.s1{fill:#fff;opacity:0.5;}.s2{fill:#fff;opacity:0.6;}</style><g transform="translate(0,-52.362183)"><g transform="matrix(1.1783562,0,0,1.1783562,2450.4425,-1298.9778)"><g transform="translate(-905.09668,1190.7678)"><rect width="263" height="263" x="19.4" y="454" transform="matrix(-0.1406648,0.99005728,-0.99005728,0.14066481,0,0)" class="s0"/><rect width="263" height="263" x="-545.4" y="-980.3" transform="matrix(0.1406648,-0.99005728,0.99005728,-0.14066481,0,0)" class="s1"/><rect width="263" height="263" x="-1091.8" y="239.4" transform="matrix(0.99005728,0.1406648,0.14066481,0.99005728,0,0)" class="s0"/><rect width="263" height="263" x="565.8" y="-765" transform="matrix(-0.99005728,-0.1406648,-0.14066481,-0.99005728,0,0)" class="s1"/><rect transform="matrix(-0.60061118,-0.79954125,0.60061117,-0.79954125,0,0)" y="-1125" x="123.2" height="263" width="263" style="fill:#fff;opacity:0.4"/><rect transform="matrix(-0.79954125,0.60061118,-0.79954125,-0.60061117,0,0)" y="-110.1" x="522.4" height="263" width="263" class="s2"/><rect transform="matrix(0.60061118,0.79954125,-0.60061118,0.79954125,0,0)" y="599.3" x="-649.6" height="263" width="263" style="fill:#fff;opacity:0.8"/><rect transform="matrix(0.79954125,-0.60061118,0.79954125,0.60061117,0,0)" y="-415.2" x="-1048.9" height="263" width="263" class="s2"/></g><rect transform="matrix(0.70710678,0.70710678,-0.70710678,0.70710678,0,0)" y="2210.7" x="-130.2" height="141.4" width="141.4" fill="#fff"/></g></g><path d="m197.1 669.9c0 0-11.5 83.8 58.5 113.8 60.9 26.1 109.3 13 144.4 0.7 35.1-12.4 98.9-66.3 98.9-66.3 0 0 92.3 74.1 154.1 80.6 61.8 6.5 100.4-9.5 119-28 45.1-44.9 34.5-102.8 34.5-102.8 0 0-43.6 31.9-88.4 11.7-44.9-20.2-63.7-73.6-109.8-90.5-46.2-16.9-78.1 0.8-91.8 13.1-13.7 12.4-15.6 16.9-15.6 16.9 0 0-28-31.2-63.1-33.8-35.1-2.6-59.8 15.6-91 46.2-31.2 30.6-48.1 54-83.9 55.3-35.8 1.3-65.7-16.9-65.7-16.9z" fill="#474354"/></svg>