<svg id="logo-svg" width="35" height="37" viewBox="0 0 35 37" fill="none" xmlns="http://www.w3.org/2000/svg">
    <style>
        #logo-svg path {}
    </style>
    <path fill-rule="evenodd" clip-rule="evenodd" d="M17.3221 0L22.0675 6.27912L29.9148 5.66929L29.163 13.603L35 18.4588L29.1617 22.9624L29.914 31.5991L22.0591 30.3782L17.3216 37L13.0084 30.3801L4.99987 31.599L5.9196 22.9601L0 18.4589L5.918 13.6061L4.99873 5.66924L13.0011 6.27816L17.3221 0ZM17.3735 2.38866L13.6697 7.76999L6.56649 7.22948L7.37806 14.2365L2.28158 18.4157L7.37646 22.2897L6.56535 29.9084L13.6624 28.8282L17.374 34.5247L21.4481 28.8302L28.3841 29.9083L27.7202 22.2873L32.7391 18.4158L27.7189 14.2396L28.3833 7.22943L21.4397 7.76902L17.3735 2.38866Z" />
    <path fill-rule="evenodd" clip-rule="evenodd" d="M20.0083 18.4784L17.5052 15.866L15.002 18.4784L17.5052 21.0908L20.0083 18.4784ZM17.5052 13.8335L13.0546 18.4784L17.5052 23.1232L21.9557 18.4784L17.5052 13.8335Z" />
    <path fill-rule="evenodd" clip-rule="evenodd" d="M9.07437 11.0381L15.4042 16.0588L14.571 17.203L9.09955 12.8632L7.08025 14.5627L6.21582 13.4441L9.07437 11.0381Z" />
    <path fill-rule="evenodd" clip-rule="evenodd" d="M22.2111 6.65541L24.8491 10.073L20.9314 14.9113L25.8477 10.9591L28.7862 13.355L27.9384 14.4875L25.8417 12.778L20.4429 17.1181L19.8238 16.2792L19.7619 16.3556L18.7101 15.428L23.0639 10.0511L21.1388 7.55697L22.2111 6.65541ZM11.9434 10.055L13.8716 7.55697L12.7992 6.65541L10.1642 10.0691L15.1661 16.3511L16.2252 15.4326L11.9434 10.055Z" />
    <path fill-rule="evenodd" clip-rule="evenodd" d="M25.936 25.6926L19.6061 20.6719L20.4394 19.5278L25.9108 23.8676L27.9301 22.168L28.7945 23.2867L25.936 25.6926Z" />
    <path fill-rule="evenodd" clip-rule="evenodd" d="M12.7992 30.0753L10.1613 26.6577L14.0789 21.8194L9.16265 25.7716L6.22416 23.3757L7.07192 22.2432L9.16862 23.9528L14.5674 19.6127L15.1865 20.4515L15.2484 20.3751L16.3002 21.3027L11.9464 26.6796L13.8716 29.1738L12.7992 30.0753ZM23.0669 26.6757L21.1388 29.1738L22.2111 30.0753L24.8461 26.6616L19.8442 20.3796L18.7852 21.2981L23.0669 26.6757Z" />
    <path fill-rule="evenodd" clip-rule="evenodd" d="M18.4723 30.0493L17.4308 22.1281L18.795 21.9327L19.6896 28.7366L22.2686 29.0166L22.1261 30.446L18.4723 30.0493Z" />
    <path fill-rule="evenodd" clip-rule="evenodd" d="M15.6846 28.636L12.6304 28.9892L12.782 30.4176L16.9574 29.9348L17.6086 22.2177L16.2369 22.0916L15.6846 28.636ZM5.97041 23.258L6.56964 19.1271L13.2368 18.5092L6.43558 17.7788L5.96805 13.904L7.33429 13.7245L7.66509 16.4661L14.0775 17.1547L13.9505 18.443L14.1247 18.4269L14.2465 19.8584L7.76919 20.4587L7.33192 23.4732L5.97041 23.258Z" />
    <path fill-rule="evenodd" clip-rule="evenodd" d="M29.1417 13.3798L28.5389 17.5975L22.306 18.1693L28.5531 18.9599L29.0256 22.8223L27.6597 23.0043L27.3229 20.2519L21.0061 19.4524L21.1428 18.276L20.5901 18.3267L20.4695 16.8951L27.3371 16.2651L27.7797 13.1678L29.1417 13.3798ZM19.284 8.10801L22.3383 7.74924L22.1842 6.32112L18.0103 6.81141L17.3284 14.9482L18.7002 15.0734L19.284 8.10801Z" />
    <path fill-rule="evenodd" clip-rule="evenodd" d="M12.4835 6.246L16.691 6.48023L17.6635 14.6779L16.297 14.8545L15.4661 7.85122L12.4101 7.68109L12.4835 6.246Z" />
</svg>
