<svg viewBox="0 0 267.204 267.245" preserveAspectRatio="none" xmlns:xlink="http://www.w3.org/1999/xlink" xmlns="http://www.w3.org/2000/svg">
    <path d="M228.256 39.167l-11.755 82.74-82.74 11.756 11.756-82.74z" fill="#a295ae" opacity=".8"/>
    <path d="M39.19 228.134l11.755-82.74 82.74-11.756-11.755 82.74z" fill="#5d6f6d" opacity=".8"/>
    <path d="M39.19 39.277l82.74 11.755 11.756 82.74-82.74-11.755z" fill="#8cd592" opacity=".8"/>
    <path d="M228.16 228.144l-82.74-11.755-11.756-82.742 82.74 11.756z" fill="#665e74" opacity=".8"/>
    <path d="M133.738 267.245l-50.194-66.82 50.194-66.817 50.194 66.818z" fill="#3c3647" opacity=".8"/>
    <path d="M267.204 133.48l-66.82 50.195-66.817-50.194 66.818-50.193z" fill="#837193" opacity=".8"/>
    <path d="M133.616 0l50.194 66.82-50.194 66.817L83.422 66.82z" fill="#a2f4ac" opacity=".8"/>
    <path d="M0 133.706l66.82-50.194 66.817 50.194L66.82 183.9z" fill="#7ea685" opacity=".8"/>
    <path d="M133.602 101.85l31.772 31.772-31.772 31.772-31.772-31.772z" fill="#3c3647"/>
    <a xlink:href="https://es.movember.com/team/1948045" target="_blank">
        <path class="moustache"
            d="M234.8854 159.9654c-3.5818-.9303-9.081 13.3486-21.9988 13.3486-16.5907 0-24.3975-28.6024-50.324-28.6024-20.569 0-26.8328 16.3965-28.194 16.3965-1.361 0-7.6268-16.3964-28.1917-16.3964-25.9226 0-33.7336 28.6024-50.3263 28.6024-12.9177 0-18.413-14.279-21.9948-13.3486-3.3493.8717 6.1726 49.4383 51.5497 49.4383 29.4417 0 46.7483-23.4227 48.963-23.4227 2.2187 0 19.5233 23.4227 48.965 23.4227 45.379.002 54.899-48.5666 51.5518-49.4383z"/>
    </a>
</svg>
