<svg xmlns="http://www.w3.org/2000/svg" width="300" height="200"><path d="M211,504L-64,554L273,510Z" fill="#448e54" stroke="#448e54" stroke-width="1.51"/><path d="M395,96L413,270L481,52Z" fill="#449c57" stroke="#449c57" stroke-width="1.51"/><path d="M481,52L413,270L488,358Z" fill="#2b8e4c" stroke="#2b8e4c" stroke-width="1.51"/><path d="M273,510L-64,554L495,543Z" fill="#2d8249" stroke="#2d8249" stroke-width="1.51"/><path d="M-302,-260L105,-294L513,-357Z" fill="#c4e6a4" stroke="#c4e6a4" stroke-width="1.51"/><path d="M105,-294L298,-267L513,-357Z" fill="#9fcf8d" stroke="#9fcf8d" stroke-width="1.51"/><path d="M282,-153L481,52L534,-109Z" fill="#72af69" stroke="#72af69" stroke-width="1.51"/><path d="M513,-357L298,-267L534,-109Z" fill="#8bb777" stroke="#8bb777" stroke-width="1.51"/><path d="M298,-267L282,-153L534,-109Z" fill="#8abe77" stroke="#8abe77" stroke-width="1.51"/><path d="M481,52L488,358L534,-109Z" fill="#469757" stroke="#469757" stroke-width="1.51"/><path d="M488,358L495,543L534,-109Z" fill="#218346" stroke="#218346" stroke-width="1.51"/><path d="M282,-153L395,96L481,52Z" fill="#69af67" stroke="#69af67" stroke-width="1.51"/><path d="M488,358L273,510L495,543Z" fill="#10723b" stroke="#10723b" stroke-width="1.51"/><path d="M413,270L273,510L488,358Z" fill="#208041" stroke="#208041" stroke-width="1.51"/><path d="M282,-153L148,102L395,96Z" fill="#72c072" stroke="#72c072" stroke-width="1.51"/><path d="M181,356L273,510L413,270Z" fill="#2d904c" stroke="#2d904c" stroke-width="1.51"/><path d="M395,96L148,102L413,270Z" fill="#4cab5f" stroke="#4cab5f" stroke-width="1.51"/><path d="M148,102L181,356L413,270Z" fill="#45aa5d" stroke="#45aa5d" stroke-width="1.51"/><path d="M-302,-260L-45,-237L105,-294Z" fill="#e6f5ad" stroke="#e6f5ad" stroke-width="1.51"/><path d="M181,356L211,504L273,510Z" fill="#348f4f" stroke="#348f4f" stroke-width="1.51"/><path d="M161,-135L148,102L282,-153Z" fill="#92d081" stroke="#92d081" stroke-width="1.51"/><path d="M161,-135L282,-153L298,-267Z" fill="#9cd386" stroke="#9cd386" stroke-width="1.51"/><path d="M105,-294L161,-135L298,-267Z" fill="#aedc91" stroke="#aedc91" stroke-width="1.51"/><path d="M148,102L-14,145L181,356Z" fill="#6ebf71" stroke="#6ebf71" stroke-width="1.51"/><path d="M-14,145L-48,271L181,356Z" fill="#74bd70" stroke="#74bd70" stroke-width="1.51"/><path d="M181,356L-64,554L211,504Z" fill="#4e995a" stroke="#4e995a" stroke-width="1.51"/><path d="M-111,-28L-14,145L148,102Z" fill="#9cd687" stroke="#9cd687" stroke-width="1.51"/><path d="M-111,-28L148,102L161,-135Z" fill="#a5da8a" stroke="#a5da8a" stroke-width="1.51"/><path d="M-48,271L-64,554L181,356Z" fill="#69aa65" stroke="#69aa65" stroke-width="1.51"/><path d="M105,-294L-45,-237L161,-135Z" fill="#c3e69b" stroke="#c3e69b" stroke-width="1.51"/><path d="M-45,-237L-111,-28L161,-135Z" fill="#c6e89a" stroke="#c6e89a" stroke-width="1.51"/><path d="M-274,131L-276,222L-48,271Z" fill="#a2d48a" stroke="#a2d48a" stroke-width="1.51"/><path d="M-217,430L-64,554L-48,271Z" fill="#7eb16f" stroke="#7eb16f" stroke-width="1.51"/><path d="M-218,-122L-111,-28L-45,-237Z" fill="#dbf1a4" stroke="#dbf1a4" stroke-width="1.51"/><path d="M-274,131L-48,271L-14,145Z" fill="#9cd385" stroke="#9cd385" stroke-width="1.51"/><path d="M-111,-28L-274,131L-14,145Z" fill="#b2df93" stroke="#b2df93" stroke-width="1.51"/><path d="M-276,222L-217,430L-48,271Z" fill="#92c47d" stroke="#92c47d" stroke-width="1.51"/><path d="M-302,-260L-218,-122L-45,-237Z" fill="#ecf8b1" stroke="#ecf8b1" stroke-width="1.51"/><path d="M-218,-122L-274,131L-111,-28Z" fill="#cdeba0" stroke="#cdeba0" stroke-width="1.51"/><path d="M-302,-260L-274,131L-218,-122Z" fill="#dff2b2" stroke="#dff2b2" stroke-width="1.51"/><path d="M-302,-260L-276,222L-274,131Z" fill="#cae9ab" stroke="#cae9ab" stroke-width="1.51"/></svg>