<svg xmlns:svg="http://www.w3.org/2000/svg" xmlns="http://www.w3.org/2000/svg" width="64" height="64" viewBox="0 0 64 64" version="1.1">
	<path fill="#ea7b4b" d="m43.522 51.957c3.3929-1.9548 6.3326-4.8015 8.4312-8.4366l7.7596 4.48c-2.8086 4.8646-6.8483 8.9042-11.713 11.713z"/>
	<path fill="#e4ce40" d="m32 55.044v8.956c5.6172 0 11.135-1.4785 16-4.2872l-4.48-7.7595c-3.635 2.0987-7.6042 3.0943-11.52 3.0907z"/>
	<path fill="#e44057" d="m51.957 43.522 7.7562 4.4781c2.8086-4.8646 4.2871-10.383 4.2871-16h-8.9598c0 4.1974-1.1224 8.1326-3.0835 11.522z"/>
	<path fill="#4056e4" d="m16 4.2871c-4.8646 2.8086-8.9042 6.8482-11.713 11.713l7.7595 4.48c2.0987-3.6351 5.0384-6.4819 8.4314-8.4366z"/>
	<path fill="#ce40e4" d="m32-1.28e-4c-5.6172-2.56e-6 -11.135 1.4786-16 4.2872l4.4799 7.7594c3.6351-2.0987 7.6044-3.0942 11.52-3.0906z"/>
	<path fill="#40e47c" d="m12.044 20.478-7.7563-4.4781c-2.8086 4.8646-4.2872 10.383-4.2872 16h8.96c2.56e-5 -4.1974 1.1224-8.1326 3.0835-11.522z"/>
</svg>
