<svg viewBox="0 0 400 400.00001" xmlns="http://www.w3.org/2000/svg">
    <path
        d="M158 0c-54.5 0-99 44.4-99 99 0 54.4 44.5 98.8 99 98.8 54.4 0 99-44.4 99-99C257 44.5 212.3 0 158 0zm0 25c41 0 74 33 74 74s-33 73.8-74 73.8-74-33-74-74S117 25 158 25zm42.4 175v200h200V200h-200zM158 213.6C70.2 213.6 0 292.2-.3 387.4V400h176.7v-25h-151c6-77 63.5-136.3 132.6-136.4 6.2 0 12.3.5 18.4 1.5V215c-6-.8-12.2-1.2-18.4-1.2zm67.4 11.4h150v27.4L360.8 240l-74 88-49.8-42-11.6 14v-75zm150 36.7V375h-150v-66l45.2 38.2 19 16 16.2-19 69.6-82.5z"/>
</svg>
