<?xml version="1.0" encoding="UTF-8" standalone="no"?>
<svg xmlns="http://www.w3.org/2000/svg" viewbox="0 0 1024 1024">
    <path d="M511.9 304.777c111.998 0 202.897 90.9 202.897 202.898 0 26.174-5.276 51.13-14.406 74.058L819.087 700.43c61.275-51.132 109.565-117.276 139.39-192.755C888.073 329.53 715 203.328 511.9 203.328c-56.813 0-111.19 10.145-161.71 28.406l87.65 87.45c22.928-8.928 47.885-14.407 74.06-14.407zM106.1 194.197l92.522 92.522 18.464 18.463C150.13 357.53 97.175 427.125 65.523 507.675 135.726 685.82 309 812.023 511.9 812.023c62.897 0 122.955-12.174 177.94-34.29l17.247 17.246 118.29 118.492 51.738-51.536L157.84 142.46l-51.738 51.738zM330.508 418.4l62.695 62.696c-1.826 8.724-3.043 17.45-3.043 26.58 0 67.16 54.58 121.738 121.74 121.738 9.13 0 17.854-1.217 26.375-3.043l62.696 62.696c-26.985 13.392-57.014 21.508-89.07 21.508-112 0-202.9-90.9-202.9-202.9 0-32.056 8.116-62.085 21.508-89.274zm174.695-31.855L633.03 514.37l.607-6.695c0-67.16-54.58-121.738-121.738-121.738l-6.697.608z"/>
</svg>
