<svg xmlns:dc="http://purl.org/dc/elements/1.1/" xmlns:cc="http://creativecommons.org/ns#" xmlns:rdf="http://www.w3.org/1999/02/22-rdf-syntax-ns#" xmlns:svg="http://www.w3.org/2000/svg" xmlns="http://www.w3.org/2000/svg" id="svg56758" viewBox="0 0 100 100" version="1.1">
  <metadata id="metadata56774">
    <rdf:RDF>
      <cc:Work rdf:about="">
        <dc:format>
          image/svg+xml
        </dc:format>
        <dc:type rdf:resource="http://purl.org/dc/dcmitype/StillImage"/>
        <dc:title/>
      </cc:Work>
    </rdf:RDF>
  </metadata>
  <defs id="defs56772"/>
  <path id="path15919" d="m24.118663 3.9572425 0 10.2712375-15.0277614 0c-4.9999698 0-9.09090381 4.090934-9.09090381 9.090918l0 63.63246c0 4.99997 4.09093401 9.0909 9.09090381 9.0909l81.8182034 0c4.999959 0 9.090895-4.09093 9.090895-9.0909l0-63.63246c0-4.999984-4.090936-9.090918-9.090895-9.090918l-14.789334 0 0-10.2712375-8.829067 0 0 10.2712375-12.760889 0 0-10.2712375-8.825118 0 0 10.2712375-12.760884 0 0-10.2712375zM9.0909016 23.272498l15.0277614 0 0 4.53764 8.82515 0 0-4.53764 12.760884 0 0 4.53764 8.825118 0 0-4.53764 12.760889 0 0 4.53764 8.829067 0 0-4.53764 14.789334 0 0 63.72624-81.8182034 0zm7.1367154 13.02894 0 8.29751 68.592205 0 0-8.29751zm0 16.59503 0 8.30142 68.592205 0 0-8.30142zm0 16.59893 0 8.2975 68.592205 0c0-3.81311 0-8.2975 0-8.2975z" fill="#000"/>
</svg>
