<?xml version="1.0" encoding="UTF-8" standalone="no"?>
<svg version="1.1" viewBox="0 0 1000 1000" xmlns:cc="http://creativecommons.org/ns#" xmlns:dc="http://purl.org/dc/elements/1.1/" xmlns:rdf="http://www.w3.org/1999/02/22-rdf-syntax-ns#" xmlns="http://www.w3.org/2000/svg">
    <path d="m5.1e2 2.1e2c-2e2 0-3.7e2 1.3e2 -4.4e2 3e2 70 1.8e2 2.4e2 3e2 4.4e2 3e2s3.7e2 -1.3e2 4.4e2 -3e2c-60-1.8e2 -2.4e2 -3e2 -4.4e2 -3e2zm0 5.1e2c-1.1e2 0-2e2 -91-2e2 -2e2s91-2e2 2e2 -2e2 2e2 91 2e2 2e2 -91 2e2 -2e2 2e2zm0-3.2e2c-67 0-1.2e2 54-1.2e2 1.2e2 0 67 54 1.2e2 1.2e2 1.2e2 67 0 1.2e2 -54 1.2e2 -1.2e2 0-67-54-1.2e2 -1.2e2 -1.2e2z"/>
</svg>
